<svg xmlns="http://www.w3.org/2000/svg" xmlns:xlink="http://www.w3.org/1999/xlink"><symbol id="arrow-left"><path d="M16 4H4v2L0 3l4-3v2h12z" fill-rule="evenodd"/></symbol><symbol id="arrow-right"><path d="M16 3l-4 3V4H0V2h12V0z" fill-rule="evenodd"/></symbol><symbol id="contact-adres"><path d="M5.786.003C2.798.108.315 2.432.029 5.398c-.059.594-.025 1.169.08 1.719s.009.064.04.187c.092.412.231.812.404 1.187.601 1.42 1.992 3.797 5.113 6.383a.525.525 0 0 0 .666 0c3.121-2.583 4.512-4.96 5.116-6.386.176-.375.311-.772.404-1.187.028-.12.04-.187.04-.187.071-.369.108-.747.108-1.135C12 2.604 9.197-.117 5.786.003zm.213 8.952c-1.61 0-2.914-1.3-2.914-2.905s1.304-2.905 2.914-2.905 2.914 1.3 2.914 2.905-1.304 2.905-2.914 2.905z" fill="#00ffd7" fill-rule="evenodd"/></symbol><symbol id="contact-email"><filter id="a"><feFlood flood-color="#00ceb9" result="floodOut"/><feComposite in="floodOut" in2="SourceGraphic" operator="atop" result="compOut"/><feBlend in="compOut" in2="SourceGraphic"/></filter><g filter="url(#a)"><path d="M13.999 11.42c1.097 0 1.994-.803 1.994-1.792V2.245c0-.986-.893-1.792-1.994-1.792H1.993C.896.453 0 1.255 0 2.245v7.383c0 .986.892 1.792 1.993 1.792zM2.037 2.947a.41.41 0 0 1-.056-.623.528.528 0 0 1 .692-.051l5.323 4.068 5.327-4.063a.53.53 0 0 1 .692.05.412.412 0 0 1-.056.622l-3.802 2.902 3.818 3.232a.408.408 0 0 1 .02.623.529.529 0 0 1-.692.021L9.401 6.427l-1.089.832c-.092.068-.204.105-.316.105s-.224-.037-.316-.105l-1.089-.832-3.902 3.301a.529.529 0 0 1-.692-.021.411.411 0 0 1 .02-.623l3.818-3.232z" fill="#666" fill-rule="evenodd"/></g></symbol><symbol id="contact-phone"><filter id="a"><feFlood flood-color="#00ceb9" result="floodOut"/><feComposite in="floodOut" in2="SourceGraphic" operator="atop" result="compOut"/><feBlend in="compOut" in2="SourceGraphic"/></filter><g filter="url(#a)"><path d="M12.995 10.675c-.369 1.202-1.748 2.075-3.278 2.074a4.16 4.16 0 0 1-.448-.025c-1.86-.245-4.037-1.415-5.828-3.133C1.556 7.939.279 5.944.027 4.253-.229 2.541.607 1.265 2.262.838A1.07 1.07 0 0 1 2.53.805c.969 0 2.124 1.255 2.525 2.156.261.586.241 1.038-.057 1.306-.75.673-1.029 1.083-.997 1.46.037.421.464.907 1.189 1.604.093.089.216.208.356.336.13.118.254.228.364.324.81.709 1.339 1.093 1.815 1.093.395 0 .823-.257 1.528-.916.106-.1.303-.219.635-.219.874 0 2.108.782 2.712 1.513.366.442.502.861.395 1.213z" fill="#666" fill-rule="evenodd"/></g></symbol><symbol id="dropdown"><filter id="a"><feFlood result="floodOut"/><feComposite in="floodOut" in2="SourceGraphic" operator="atop" result="compOut"/><feBlend in="compOut" in2="SourceGraphic"/></filter><g filter="url(#a)"><path d="M0 0h8L4 5z" fill-rule="evenodd"/></g></symbol><symbol id="feature-handshake-dark" viewBox="0 0 489.9 322.85"><path d="M1 167.24a9.69 9.69 0 0 0 5.7 5l62.6 21.5a8.92 8.92 0 0 0 3.2.5 10 10 0 0 0 9.4-6.7L131 44.24l2.5.9a50.78 50.78 0 0 0 39-2.2l6.1-3a30.68 30.68 0 0 1 23.4-1.4l114.2 39.4c-1.2 4.4-3.5 9.5-7.5 12.3-4.6 3.2-11.7 3.2-21 0l-51.2-17.5a9.91 9.91 0 0 0-7.9.7 10.13 10.13 0 0 0-4.9 6.2c-.1.3-7.3 26.7-29.5 38.6-14 7.5-31.5 7.7-52 .7a9.93 9.93 0 1 0-6.4 18.8c12 4.1 23.4 6.2 34 6.2a70.87 70.87 0 0 0 33.9-8.3c20-10.8 30.6-29.4 35.5-40.9l42 14.4c15.6 5.3 28.6 4.5 38.7-2.5 15.9-11 17-32.5 17.1-34.9a10.12 10.12 0 0 0-6.7-9.7l-122-42.1a50.71 50.71 0 0 0-38.6 2.4l-6.1 3a31 31 0 0 1-23.7 1.4l-10.1-3.6a6.63 6.63 0 0 0-1.9-.9L65.6.54A9.91 9.91 0 0 0 53 6.74l-52.5 153a10.29 10.29 0 0 0 .5 7.5zM68.59 22.47l43.8 15-46 134.3-43.8-15z"/><path d="M104.09 257.94a29 29 0 0 0 25.1 16.2 29.83 29.83 0 0 0 2.9 12.7 28.53 28.53 0 0 0 16.7 14.7 28.39 28.39 0 0 0 22.1-1.4l5.2-2.6a30 30 0 0 0 2.7 9 28.53 28.53 0 0 0 16.7 14.7 28.39 28.39 0 0 0 22.1-1.4l113.7-55.7a292.75 292.75 0 0 0 69.6-47.5l25.4-23.3 58.1-28.4a9.85 9.85 0 0 0 4.5-13.2L418.09 6.47a9.92 9.92 0 0 0-13.3-4.5l-59.4 29.1a9.85 9.85 0 0 0-4.5 13.2l67.8 138.6-21 19.3a276.24 276.24 0 0 1-64.9 44.3l-113.7 55.7a9.19 9.19 0 0 1-7.1.4 9.42 9.42 0 0 1-5.3-4.7 9.19 9.19 0 0 1-.4-7.1 9.42 9.42 0 0 1 4.71-5.3l63.6-31.1a9.861 9.861 0 0 0-8.7-17.7l-63.6 31.1-30 14.7a9.19 9.19 0 0 1-7.1.4 9.42 9.42 0 0 1-5.3-4.7 9.19 9.19 0 0 1-.4-7.1 9.42 9.42 0 0 1 4.7-5.3l91.2-44.6a9.861 9.861 0 0 0-8.7-17.7l-102.5 50.1a9.39 9.39 0 0 1-12.4-4.2 9.19 9.19 0 0 1-.4-7.1 9.42 9.42 0 0 1 4.7-5.3l40.4-19.8 52.5-25.7a9.861 9.861 0 0 0-8.7-17.7l-81.7 40a9.26 9.26 0 0 1-8.2-16.6l43.4-21.2a9.861 9.861 0 0 0-8.7-17.7l-43.41 21.2a29.06 29.06 0 0 0-5.1 49 28.58 28.58 0 0 0-2.5 29.47zM363 44.47l41.6-20.4L467 151.54l-41.6 20.4z"/></symbol><symbol id="feature-handshake" viewBox="0 0 489.9 322.85"><g fill="#fff"><path d="M1 167.24a9.69 9.69 0 0 0 5.7 5l62.6 21.5a8.92 8.92 0 0 0 3.2.5 10 10 0 0 0 9.4-6.7L131 44.24l2.5.9a50.78 50.78 0 0 0 39-2.2l6.1-3a30.68 30.68 0 0 1 23.4-1.4l114.2 39.4c-1.2 4.4-3.5 9.5-7.5 12.3-4.6 3.2-11.7 3.2-21 0l-51.2-17.5a9.91 9.91 0 0 0-7.9.7 10.13 10.13 0 0 0-4.9 6.2c-.1.3-7.3 26.7-29.5 38.6-14 7.5-31.5 7.7-52 .7a9.93 9.93 0 1 0-6.4 18.8c12 4.1 23.4 6.2 34 6.2a70.87 70.87 0 0 0 33.9-8.3c20-10.8 30.6-29.4 35.5-40.9l42 14.4c15.6 5.3 28.6 4.5 38.7-2.5 15.9-11 17-32.5 17.1-34.9a10.12 10.12 0 0 0-6.7-9.7l-122-42.1a50.71 50.71 0 0 0-38.6 2.4l-6.1 3a31 31 0 0 1-23.7 1.4l-10.1-3.6a6.63 6.63 0 0 0-1.9-.9L65.6.54A9.91 9.91 0 0 0 53 6.74l-52.5 153a10.29 10.29 0 0 0 .5 7.5zM68.59 22.47l43.8 15-46 134.3-43.8-15z"/><path d="M104.09 257.94a29 29 0 0 0 25.1 16.2 29.83 29.83 0 0 0 2.9 12.7 28.53 28.53 0 0 0 16.7 14.7 28.39 28.39 0 0 0 22.1-1.4l5.2-2.6a30 30 0 0 0 2.7 9 28.53 28.53 0 0 0 16.7 14.7 28.39 28.39 0 0 0 22.1-1.4l113.7-55.7a292.75 292.75 0 0 0 69.6-47.5l25.4-23.3 58.1-28.4a9.85 9.85 0 0 0 4.5-13.2L418.09 6.47a9.92 9.92 0 0 0-13.3-4.5l-59.4 29.1a9.85 9.85 0 0 0-4.5 13.2l67.8 138.6-21 19.3a276.24 276.24 0 0 1-64.9 44.3l-113.7 55.7a9.19 9.19 0 0 1-7.1.4 9.42 9.42 0 0 1-5.3-4.7 9.19 9.19 0 0 1-.4-7.1 9.42 9.42 0 0 1 4.71-5.3l63.6-31.1a9.861 9.861 0 0 0-8.7-17.7l-63.6 31.1-30 14.7a9.19 9.19 0 0 1-7.1.4 9.42 9.42 0 0 1-5.3-4.7 9.19 9.19 0 0 1-.4-7.1 9.42 9.42 0 0 1 4.7-5.3l91.2-44.6a9.861 9.861 0 0 0-8.7-17.7l-102.5 50.1a9.39 9.39 0 0 1-12.4-4.2 9.19 9.19 0 0 1-.4-7.1 9.42 9.42 0 0 1 4.7-5.3l40.4-19.8 52.5-25.7a9.861 9.861 0 0 0-8.7-17.7l-81.7 40a9.26 9.26 0 0 1-8.2-16.6l43.4-21.2a9.861 9.861 0 0 0-8.7-17.7l-43.41 21.2a29.06 29.06 0 0 0-5.1 49 28.58 28.58 0 0 0-2.5 29.47zM363 44.47l41.6-20.4L467 151.54l-41.6 20.4z"/></g></symbol><symbol id="feature-like-dark" viewBox="0 0 467.52 488.6"><path d="M464.67 188.1a25.12 25.12 0 0 0-11-33.8l-54-27.4a5.16 5.16 0 0 1-2.8-3.9l-9.41-59.8A25 25 0 0 0 362.67 42a26.93 26.93 0 0 0-4 .3l-59.8 9.5a5.23 5.23 0 0 1-4.6-1.5l-42.7-42.9a25.11 25.11 0 0 0-35.6 0l-42.8 42.8a5.46 5.46 0 0 1-3.8 1.6 2 2 0 0 1-.8-.1l-59.8-9.5a26.93 26.93 0 0 0-4-.3 25 25 0 0 0-24.8 21.2l-9.4 59.8a5.4 5.4 0 0 1-2.8 3.9l-54 27.4a24.77 24.77 0 0 0-12.5 14.6 25.13 25.13 0 0 0 1.5 19.2l27.5 53.9a5.1 5.1 0 0 1 0 4.8l-27.5 53.9a25.12 25.12 0 0 0 11 33.8l54 27.4a5.16 5.16 0 0 1 2.8 3.9l9.4 59.8a25 25 0 0 0 24.8 21.2 26.93 26.93 0 0 0 4-.3l59.8-9.5a5.23 5.23 0 0 1 4.6 1.5l42.8 42.8a25.11 25.11 0 0 0 35.6 0l42.8-42.8a5.23 5.23 0 0 1 4.6-1.5l59.8 9.5a26.93 26.93 0 0 0 4 .3 25 25 0 0 0 24.8-21.2l9.4-59.8a5.4 5.4 0 0 1 2.8-3.9l54-27.4a24.77 24.77 0 0 0 12.5-14.6 25.13 25.13 0 0 0-1.5-19.2l-27.5-53.9a5.1 5.1 0 0 1 0-4.8zm-45.21 67.7l27.5 53.9a5.31 5.31 0 0 1 .3 4.1 4.9 4.9 0 0 1-2.7 3.1l-54 27.4a25 25 0 0 0-13.4 18.5l-9.4 59.8a5.33 5.33 0 0 1-6.1 4.4l-59.8-9.5a26 26 0 0 0-4-.3 25 25 0 0 0-17.8 7.4l-42.5 42.8a5.44 5.44 0 0 1-7.5 0l-42.8-42.8a25.39 25.39 0 0 0-17.8-7.4 26.93 26.93 0 0 0-4 .3l-59.8 9.5a5.33 5.33 0 0 1-6.1-4.4l-9.4-59.8a25.19 25.19 0 0 0-13.4-18.5l-54-27.4a5.2 5.2 0 0 1-2.7-3.1 5.8 5.8 0 0 1 .3-4.1l27.5-53.9a25 25 0 0 0 0-22.9L20.37 179a5.31 5.31 0 0 1-.3-4.1 4.9 4.9 0 0 1 2.7-3.1l54-27.4a25 25 0 0 0 13.4-18.5l9.4-59.8a5.33 5.33 0 0 1 6.1-4.4l59.79 9.5a26 26 0 0 0 4 .3 25 25 0 0 0 17.8-7.4l42.7-42.7a5.44 5.44 0 0 1 7.5 0l42.8 42.8a24.8 24.8 0 0 0 17.8 7.4 26.93 26.93 0 0 0 4-.3l59.8-9.5a5.39 5.39 0 0 1 6.1 4.4l9.4 59.8a25.19 25.19 0 0 0 13.4 18.5l54 27.4a5.2 5.2 0 0 1 2.7 3.1 5.31 5.31 0 0 1-.3 4.1L419.67 233a24.81 24.81 0 0 0-.21 22.8z"/><path d="M311.97 184.7h-44.1v-30.6c0-16.2-4.9-28-14.6-35.1-14.9-11-34.4-5.3-36.6-4.6a9.87 9.87 0 0 0-6.9 9.4v39.1c0 27.5-32.8 37.2-34.1 37.6a11.92 11.92 0 0 0-2 .8 19.8 19.8 0 0 0-11.7-3.9h-28.3a19.53 19.53 0 0 0-19.5 19.5v97.7a19.53 19.53 0 0 0 19.5 19.5h28.3a19.87 19.87 0 0 0 12.7-4.7 35.37 35.37 0 0 0 22.6 8.2h95.8c23.2 0 38.7-12.8 41.4-34.2l12.9-81.8a7.57 7.57 0 0 0 .1-1.5 35.49 35.49 0 0 0-35.5-35.4zm-150.2 129.8h-27.8v-97.2h27.8zm153.2-13.8v.3c-.6 4.6-2.1 17-21.8 17h-95.8a15.83 15.83 0 0 1-15.8-15.8v-82.7c5.6-1.7 48-15.8 48-56.5v-30.8c4-.2 8.7.3 12 2.8 4.3 3.2 6.4 9.6 6.4 19.1v40.5a9.86 9.86 0 0 0 9.9 9.9h54a15.68 15.68 0 0 1 15.7 15.1z"/></symbol><symbol id="feature-like" viewBox="0 0 467.52 488.6"><g fill="#fff"><path d="M464.67 188.1a25.12 25.12 0 0 0-11-33.8l-54-27.4a5.16 5.16 0 0 1-2.8-3.9l-9.41-59.8A25 25 0 0 0 362.67 42a26.93 26.93 0 0 0-4 .3l-59.8 9.5a5.23 5.23 0 0 1-4.6-1.5l-42.7-42.9a25.11 25.11 0 0 0-35.6 0l-42.8 42.8a5.46 5.46 0 0 1-3.8 1.6 2 2 0 0 1-.8-.1l-59.8-9.5a26.93 26.93 0 0 0-4-.3 25 25 0 0 0-24.8 21.2l-9.4 59.8a5.4 5.4 0 0 1-2.8 3.9l-54 27.4a24.77 24.77 0 0 0-12.5 14.6 25.13 25.13 0 0 0 1.5 19.2l27.5 53.9a5.1 5.1 0 0 1 0 4.8l-27.5 53.9a25.12 25.12 0 0 0 11 33.8l54 27.4a5.16 5.16 0 0 1 2.8 3.9l9.4 59.8a25 25 0 0 0 24.8 21.2 26.93 26.93 0 0 0 4-.3l59.8-9.5a5.23 5.23 0 0 1 4.6 1.5l42.8 42.8a25.11 25.11 0 0 0 35.6 0l42.8-42.8a5.23 5.23 0 0 1 4.6-1.5l59.8 9.5a26.93 26.93 0 0 0 4 .3 25 25 0 0 0 24.8-21.2l9.4-59.8a5.4 5.4 0 0 1 2.8-3.9l54-27.4a24.77 24.77 0 0 0 12.5-14.6 25.13 25.13 0 0 0-1.5-19.2l-27.5-53.9a5.1 5.1 0 0 1 0-4.8zm-45.21 67.7l27.5 53.9a5.31 5.31 0 0 1 .3 4.1 4.9 4.9 0 0 1-2.7 3.1l-54 27.4a25 25 0 0 0-13.4 18.5l-9.4 59.8a5.33 5.33 0 0 1-6.1 4.4l-59.8-9.5a26 26 0 0 0-4-.3 25 25 0 0 0-17.8 7.4l-42.5 42.8a5.44 5.44 0 0 1-7.5 0l-42.8-42.8a25.39 25.39 0 0 0-17.8-7.4 26.93 26.93 0 0 0-4 .3l-59.8 9.5a5.33 5.33 0 0 1-6.1-4.4l-9.4-59.8a25.19 25.19 0 0 0-13.4-18.5l-54-27.4a5.2 5.2 0 0 1-2.7-3.1 5.8 5.8 0 0 1 .3-4.1l27.5-53.9a25 25 0 0 0 0-22.9L20.37 179a5.31 5.31 0 0 1-.3-4.1 4.9 4.9 0 0 1 2.7-3.1l54-27.4a25 25 0 0 0 13.4-18.5l9.4-59.8a5.33 5.33 0 0 1 6.1-4.4l59.79 9.5a26 26 0 0 0 4 .3 25 25 0 0 0 17.8-7.4l42.7-42.7a5.44 5.44 0 0 1 7.5 0l42.8 42.8a24.8 24.8 0 0 0 17.8 7.4 26.93 26.93 0 0 0 4-.3l59.8-9.5a5.39 5.39 0 0 1 6.1 4.4l9.4 59.8a25.19 25.19 0 0 0 13.4 18.5l54 27.4a5.2 5.2 0 0 1 2.7 3.1 5.31 5.31 0 0 1-.3 4.1L419.67 233a24.81 24.81 0 0 0-.21 22.8z"/><path d="M311.97 184.7h-44.1v-30.6c0-16.2-4.9-28-14.6-35.1-14.9-11-34.4-5.3-36.6-4.6a9.87 9.87 0 0 0-6.9 9.4v39.1c0 27.5-32.8 37.2-34.1 37.6a11.92 11.92 0 0 0-2 .8 19.8 19.8 0 0 0-11.7-3.9h-28.3a19.53 19.53 0 0 0-19.5 19.5v97.7a19.53 19.53 0 0 0 19.5 19.5h28.3a19.87 19.87 0 0 0 12.7-4.7 35.37 35.37 0 0 0 22.6 8.2h95.8c23.2 0 38.7-12.8 41.4-34.2l12.9-81.8a7.57 7.57 0 0 0 .1-1.5 35.49 35.49 0 0 0-35.5-35.4zm-150.2 129.8h-27.8v-97.2h27.8zm153.2-13.8v.3c-.6 4.6-2.1 17-21.8 17h-95.8a15.83 15.83 0 0 1-15.8-15.8v-82.7c5.6-1.7 48-15.8 48-56.5v-30.8c4-.2 8.7.3 12 2.8 4.3 3.2 6.4 9.6 6.4 19.1v40.5a9.86 9.86 0 0 0 9.9 9.9h54a15.68 15.68 0 0 1 15.7 15.1z"/></g></symbol><symbol id="feature-settings-dark" viewBox="0 0 489.95 485.55"><path d="M239.9 1.95l-24.5 10.1a25.67 25.67 0 0 0-13.9 33.5l6.3 15.2a156 156 0 0 0-32.2 32.2l-15.2-6.3a25.65 25.65 0 0 0-33.5 13.9l-10.2 24.5a25.64 25.64 0 0 0 13.9 33.5l22.5 9.3a9.89 9.89 0 1 0 7.5-18.3l-22.5-9.3a5.93 5.93 0 0 1-3.2-7.7l10.2-24.5a5.9 5.9 0 0 1 7.7-3.2l22.5 9.3a9.87 9.87 0 0 0 12-3.6 135.53 135.53 0 0 1 38.1-38.1 10 10 0 0 0 3.7-12l-9.3-22.5a6 6 0 0 1 3.2-7.7l24.5-10.1a5.9 5.9 0 0 1 7.7 3.2l9.3 22.5a9.74 9.74 0 0 0 11.1 5.95 137.22 137.22 0 0 1 53.8 0 10 10 0 0 0 11.1-5.9l9.3-22.5a5.93 5.93 0 0 1 7.7-3.2L382 30.35a5.9 5.9 0 0 1 3.2 7.7l-9.3 22.5a9.87 9.87 0 0 0 3.6 12 135.53 135.53 0 0 1 38.1 38.1 10 10 0 0 0 12 3.7l22.5-9.3a5.9 5.9 0 0 1 7.7 3.2l10.1 24.55a5.9 5.9 0 0 1-3.2 7.7l-22.5 9.3a9.85 9.85 0 0 0-5.9 11.1 137.22 137.22 0 0 1 0 53.8 10 10 0 0 0 5.9 11.1l22.5 9.3a5.93 5.93 0 0 1 3.2 7.7l-10.2 24.5a5.93 5.93 0 0 1-7.7 3.2l-22.5-9.3a9.87 9.87 0 0 0-12 3.6 135.53 135.53 0 0 1-38.1 38.1 10 10 0 0 0-3.7 12l9.3 22.5a5.9 5.9 0 0 1-3.2 7.7l-24.5 10.1a5.9 5.9 0 0 1-7.7-3.2l-9.3-22.5A9.89 9.89 0 1 0 322 337l9.3 22.5a25.6 25.6 0 0 0 13.9 13.9 26 26 0 0 0 9.8 2 25.63 25.63 0 0 0 9.8-2l24.5-10.1a25.65 25.65 0 0 0 13.9-33.5l-6.3-15.2a156 156 0 0 0 32.2-32.2l15.2 6.3a25.64 25.64 0 0 0 33.5-13.9l10.2-24.5a25.64 25.64 0 0 0-13.9-33.5l-15.2-6.3a157.66 157.66 0 0 0 0-45.5l15.2-6.3a25.65 25.65 0 0 0 13.9-33.5l-10.1-24.5a25.65 25.65 0 0 0-33.5-13.9l-15.2 6.3a155.52 155.52 0 0 0-32.1-32.2l6.3-15.2a25.65 25.65 0 0 0-13.9-33.5L365 1.95a25.64 25.64 0 0 0-33.5 13.85L325.2 31a157.66 157.66 0 0 0-45.5 0l-6.3-15.2a25.65 25.65 0 0 0-33.5-13.9z"/><path d="M382.9 187.05a80.58 80.58 0 0 0-80.5-79.9h-.6a80.58 80.58 0 0 0-80 81.1 9.9 9.9 0 0 0 9.9 9.8h.1a9.8 9.8 0 0 0 9.8-10 60.78 60.78 0 0 1 60.3-61.2h.4a60.75 60.75 0 0 1 .4 121.5 9.8 9.8 0 0 0-9.8 10 9.9 9.9 0 0 0 9.9 9.8h.1a80.6 80.6 0 0 0 80-81.1zm-247.6 298.5h19.3a21.42 21.42 0 0 0 21.4-21.4v-9.9a113.4 113.4 0 0 0 27.4-11.4l7 7a21.35 21.35 0 0 0 15.1 6.3 20.94 20.94 0 0 0 15.1-6.3l13.6-13.6a21.35 21.35 0 0 0 6.3-15.1 20.94 20.94 0 0 0-6.3-15.1l-7-7a113.4 113.4 0 0 0 11.4-27.4h9.9a21.42 21.42 0 0 0 21.4-21.4v-19.3a21.42 21.42 0 0 0-21.4-21.4h-9.9a113.4 113.4 0 0 0-11.4-27.4l7-7a21.35 21.35 0 0 0 6.3-15.1 20.94 20.94 0 0 0-6.3-15.1l-13.6-13.6a21.35 21.35 0 0 0-15.1-6.3 20.94 20.94 0 0 0-15.1 6.3l-7 7a113.4 113.4 0 0 0-27.4-11.4v-9.9a21.42 21.42 0 0 0-21.4-21.4h-19.3a21.42 21.42 0 0 0-21.4 21.4v9.9a113.4 113.4 0 0 0-27.4 11.4l-7-7a21.35 21.35 0 0 0-15.1-6.3 20.94 20.94 0 0 0-15.1 6.3l-13.6 13.6a21.43 21.43 0 0 0 0 30.2l7 7a113.4 113.4 0 0 0-11.4 27.4h-9.9A21.42 21.42 0 0 0 0 330.95v19.3a21.42 21.42 0 0 0 21.4 21.4h9.9a113.4 113.4 0 0 0 11.4 27.4l-7 7a21.43 21.43 0 0 0 0 30.2l13.6 13.6a21.35 21.35 0 0 0 15.1 6.3 20.94 20.94 0 0 0 15.1-6.3l7-7a113.4 113.4 0 0 0 27.4 11.4v9.9a21.55 21.55 0 0 0 21.4 21.4zm-44.7-63.4a10.16 10.16 0 0 0-5.5-1.7 9.84 9.84 0 0 0-7 2.9L65.6 435.8a1.46 1.46 0 0 1-2.2 0l-13.6-13.6a1.57 1.57 0 0 1 0-2.2l12.5-12.5a9.85 9.85 0 0 0 1.2-12.5 96.44 96.44 0 0 1-14.6-35.2 10 10 0 0 0-9.7-8H21.5a1.58 1.58 0 0 1-1.6-1.6v-19.3a1.58 1.58 0 0 1 1.6-1.6h17.7a9.85 9.85 0 0 0 9.7-8 96.44 96.44 0 0 1 14.6-35.2 10 10 0 0 0-1.2-12.5l-12.5-12.5a1.57 1.57 0 0 1 0-2.2l13.6-13.6a1.46 1.46 0 0 1 2.2 0L78.1 258a9.85 9.85 0 0 0 12.5 1.2 96.44 96.44 0 0 1 35.2-14.6 10 10 0 0 0 8-9.7v-17.7a1.58 1.58 0 0 1 1.6-1.6h19.3a1.58 1.58 0 0 1 1.6 1.6v17.7a9.85 9.85 0 0 0 8 9.7 96.44 96.44 0 0 1 35.2 14.6A10 10 0 0 0 212 258l12.5-12.5a1.46 1.46 0 0 1 2.2 0l13.6 13.6a1.46 1.46 0 0 1 0 2.2l-12.5 12.5a9.85 9.85 0 0 0-1.2 12.5 96.44 96.44 0 0 1 14.6 35.2 10 10 0 0 0 9.7 8h17.7a1.58 1.58 0 0 1 1.6 1.6v19.3a1.58 1.58 0 0 1-1.6 1.6h-17.7a9.85 9.85 0 0 0-9.7 8 96.44 96.44 0 0 1-14.6 35.2 10 10 0 0 0 1.2 12.5l12.5 12.5a1.46 1.46 0 0 1 0 2.2L226.7 436a1.46 1.46 0 0 1-2.2 0L212 423.55a9.85 9.85 0 0 0-12.5-1.2 96.44 96.44 0 0 1-35.2 14.6 10 10 0 0 0-8 9.7v17.7a1.58 1.58 0 0 1-1.6 1.6h-19.3a1.58 1.58 0 0 1-1.6-1.6v-17.7a9.85 9.85 0 0 0-8-9.7 100.42 100.42 0 0 1-35.2-14.8z"/><path d="M203.7 340.8a58.75 58.75 0 1 0-58.7 58.8 58.9 58.9 0 0 0 58.7-58.8zm-97.7 0a39 39 0 1 1 39 39 39.05 39.05 0 0 1-39-39z"/></symbol><symbol id="feature-settings" viewBox="0 0 489.95 485.55"><g fill="#fff"><path d="M239.9 1.95l-24.5 10.1a25.67 25.67 0 0 0-13.9 33.5l6.3 15.2a156 156 0 0 0-32.2 32.2l-15.2-6.3a25.65 25.65 0 0 0-33.5 13.9l-10.2 24.5a25.64 25.64 0 0 0 13.9 33.5l22.5 9.3a9.89 9.89 0 1 0 7.5-18.3l-22.5-9.3a5.93 5.93 0 0 1-3.2-7.7l10.2-24.5a5.9 5.9 0 0 1 7.7-3.2l22.5 9.3a9.87 9.87 0 0 0 12-3.6 135.53 135.53 0 0 1 38.1-38.1 10 10 0 0 0 3.7-12l-9.3-22.5a6 6 0 0 1 3.2-7.7l24.5-10.1a5.9 5.9 0 0 1 7.7 3.2l9.3 22.5a9.74 9.74 0 0 0 11.1 5.95 137.22 137.22 0 0 1 53.8 0 10 10 0 0 0 11.1-5.9l9.3-22.5a5.93 5.93 0 0 1 7.7-3.2L382 30.35a5.9 5.9 0 0 1 3.2 7.7l-9.3 22.5a9.87 9.87 0 0 0 3.6 12 135.53 135.53 0 0 1 38.1 38.1 10 10 0 0 0 12 3.7l22.5-9.3a5.9 5.9 0 0 1 7.7 3.2l10.1 24.55a5.9 5.9 0 0 1-3.2 7.7l-22.5 9.3a9.85 9.85 0 0 0-5.9 11.1 137.22 137.22 0 0 1 0 53.8 10 10 0 0 0 5.9 11.1l22.5 9.3a5.93 5.93 0 0 1 3.2 7.7l-10.2 24.5a5.93 5.93 0 0 1-7.7 3.2l-22.5-9.3a9.87 9.87 0 0 0-12 3.6 135.53 135.53 0 0 1-38.1 38.1 10 10 0 0 0-3.7 12l9.3 22.5a5.9 5.9 0 0 1-3.2 7.7l-24.5 10.1a5.9 5.9 0 0 1-7.7-3.2l-9.3-22.5A9.89 9.89 0 1 0 322 337l9.3 22.5a25.6 25.6 0 0 0 13.9 13.9 26 26 0 0 0 9.8 2 25.63 25.63 0 0 0 9.8-2l24.5-10.1a25.65 25.65 0 0 0 13.9-33.5l-6.3-15.2a156 156 0 0 0 32.2-32.2l15.2 6.3a25.64 25.64 0 0 0 33.5-13.9l10.2-24.5a25.64 25.64 0 0 0-13.9-33.5l-15.2-6.3a157.66 157.66 0 0 0 0-45.5l15.2-6.3a25.65 25.65 0 0 0 13.9-33.5l-10.1-24.5a25.65 25.65 0 0 0-33.5-13.9l-15.2 6.3a155.52 155.52 0 0 0-32.1-32.2l6.3-15.2a25.65 25.65 0 0 0-13.9-33.5L365 1.95a25.64 25.64 0 0 0-33.5 13.85L325.2 31a157.66 157.66 0 0 0-45.5 0l-6.3-15.2a25.65 25.65 0 0 0-33.5-13.9z"/><path d="M382.9 187.05a80.58 80.58 0 0 0-80.5-79.9h-.6a80.58 80.58 0 0 0-80 81.1 9.9 9.9 0 0 0 9.9 9.8h.1a9.8 9.8 0 0 0 9.8-10 60.78 60.78 0 0 1 60.3-61.2h.4a60.75 60.75 0 0 1 .4 121.5 9.8 9.8 0 0 0-9.8 10 9.9 9.9 0 0 0 9.9 9.8h.1a80.6 80.6 0 0 0 80-81.1zm-247.6 298.5h19.3a21.42 21.42 0 0 0 21.4-21.4v-9.9a113.4 113.4 0 0 0 27.4-11.4l7 7a21.35 21.35 0 0 0 15.1 6.3 20.94 20.94 0 0 0 15.1-6.3l13.6-13.6a21.35 21.35 0 0 0 6.3-15.1 20.94 20.94 0 0 0-6.3-15.1l-7-7a113.4 113.4 0 0 0 11.4-27.4h9.9a21.42 21.42 0 0 0 21.4-21.4v-19.3a21.42 21.42 0 0 0-21.4-21.4h-9.9a113.4 113.4 0 0 0-11.4-27.4l7-7a21.35 21.35 0 0 0 6.3-15.1 20.94 20.94 0 0 0-6.3-15.1l-13.6-13.6a21.35 21.35 0 0 0-15.1-6.3 20.94 20.94 0 0 0-15.1 6.3l-7 7a113.4 113.4 0 0 0-27.4-11.4v-9.9a21.42 21.42 0 0 0-21.4-21.4h-19.3a21.42 21.42 0 0 0-21.4 21.4v9.9a113.4 113.4 0 0 0-27.4 11.4l-7-7a21.35 21.35 0 0 0-15.1-6.3 20.94 20.94 0 0 0-15.1 6.3l-13.6 13.6a21.43 21.43 0 0 0 0 30.2l7 7a113.4 113.4 0 0 0-11.4 27.4h-9.9A21.42 21.42 0 0 0 0 330.95v19.3a21.42 21.42 0 0 0 21.4 21.4h9.9a113.4 113.4 0 0 0 11.4 27.4l-7 7a21.43 21.43 0 0 0 0 30.2l13.6 13.6a21.35 21.35 0 0 0 15.1 6.3 20.94 20.94 0 0 0 15.1-6.3l7-7a113.4 113.4 0 0 0 27.4 11.4v9.9a21.55 21.55 0 0 0 21.4 21.4zm-44.7-63.4a10.16 10.16 0 0 0-5.5-1.7 9.84 9.84 0 0 0-7 2.9L65.6 435.8a1.46 1.46 0 0 1-2.2 0l-13.6-13.6a1.57 1.57 0 0 1 0-2.2l12.5-12.5a9.85 9.85 0 0 0 1.2-12.5 96.44 96.44 0 0 1-14.6-35.2 10 10 0 0 0-9.7-8H21.5a1.58 1.58 0 0 1-1.6-1.6v-19.3a1.58 1.58 0 0 1 1.6-1.6h17.7a9.85 9.85 0 0 0 9.7-8 96.44 96.44 0 0 1 14.6-35.2 10 10 0 0 0-1.2-12.5l-12.5-12.5a1.57 1.57 0 0 1 0-2.2l13.6-13.6a1.46 1.46 0 0 1 2.2 0L78.1 258a9.85 9.85 0 0 0 12.5 1.2 96.44 96.44 0 0 1 35.2-14.6 10 10 0 0 0 8-9.7v-17.7a1.58 1.58 0 0 1 1.6-1.6h19.3a1.58 1.58 0 0 1 1.6 1.6v17.7a9.85 9.85 0 0 0 8 9.7 96.44 96.44 0 0 1 35.2 14.6A10 10 0 0 0 212 258l12.5-12.5a1.46 1.46 0 0 1 2.2 0l13.6 13.6a1.46 1.46 0 0 1 0 2.2l-12.5 12.5a9.85 9.85 0 0 0-1.2 12.5 96.44 96.44 0 0 1 14.6 35.2 10 10 0 0 0 9.7 8h17.7a1.58 1.58 0 0 1 1.6 1.6v19.3a1.58 1.58 0 0 1-1.6 1.6h-17.7a9.85 9.85 0 0 0-9.7 8 96.44 96.44 0 0 1-14.6 35.2 10 10 0 0 0 1.2 12.5l12.5 12.5a1.46 1.46 0 0 1 0 2.2L226.7 436a1.46 1.46 0 0 1-2.2 0L212 423.55a9.85 9.85 0 0 0-12.5-1.2 96.44 96.44 0 0 1-35.2 14.6 10 10 0 0 0-8 9.7v17.7a1.58 1.58 0 0 1-1.6 1.6h-19.3a1.58 1.58 0 0 1-1.6-1.6v-17.7a9.85 9.85 0 0 0-8-9.7 100.42 100.42 0 0 1-35.2-14.8z"/><path d="M203.7 340.8a58.75 58.75 0 1 0-58.7 58.8 58.9 58.9 0 0 0 58.7-58.8zm-97.7 0a39 39 0 1 1 39 39 39.05 39.05 0 0 1-39-39z"/></g></symbol><symbol id="geo"><path d="M10.608.812C5.452.995 1.169 5.066.675 10.262c-.102 1.039-.043 2.047.138 3.01s.016.113.069.329c.16.721.399 1.422.697 2.078 1.037 2.488 3.437 6.651 8.821 11.18a.89.89 0 0 0 1.149 0c5.384-4.524 7.784-8.686 8.827-11.185.303-.657.537-1.352.697-2.079.048-.21.069-.328.069-.328a10.69 10.69 0 0 0 .186-1.987c0-5.913-4.836-10.678-10.72-10.468zm.367 15.68c-2.777 0-5.028-2.277-5.028-5.088s2.251-5.089 5.028-5.089 5.027 2.278 5.027 5.089-2.25 5.088-5.027 5.088z" fill="#00ffd7" fill-rule="evenodd"/></symbol><symbol id="social-tw" viewBox="0 0 612 612"><path d="M612 116.258a250.714 250.714 0 0 1-72.088 19.772c25.929-15.527 45.777-40.155 55.184-69.411-24.322 14.379-51.169 24.82-79.775 30.48-22.907-24.437-55.49-39.658-91.63-39.658-69.334 0-125.551 56.217-125.551 125.513 0 9.828 1.109 19.427 3.251 28.606-104.326-5.24-196.835-55.223-258.75-131.174-10.823 18.51-16.98 40.078-16.98 63.101 0 43.559 22.181 81.993 55.835 104.479a125.556 125.556 0 0 1-56.867-15.756v1.568c0 60.806 43.291 111.554 100.693 123.104-10.517 2.83-21.607 4.398-33.08 4.398-8.107 0-15.947-.803-23.634-2.333 15.985 49.907 62.336 86.199 117.253 87.194-42.947 33.654-97.099 53.655-155.916 53.655-10.134 0-20.116-.612-29.944-1.721 55.567 35.681 121.536 56.485 192.438 56.485 230.948 0 357.188-191.291 357.188-357.188l-.421-16.253c24.666-17.593 46.005-39.697 62.794-64.861z" fill="#010002"/></symbol><symbol id="social-vk"><path d="M92.499 65.178c-2.873-3.446-6.254-6.387-9.453-9.51-2.886-2.815-3.068-4.448-.748-7.697 2.532-3.546 5.255-6.956 7.81-10.486 2.385-3.299 4.823-6.589 6.078-10.539.796-2.513.092-3.623-2.485-4.063-.444-.077-.903-.081-1.355-.081l-15.289-.018c-1.883-.028-2.924.793-3.59 2.462-.899 2.256-1.826 4.51-2.897 6.687-2.43 4.936-5.144 9.707-8.949 13.747-.839.891-1.767 2.017-3.169 1.553-1.754-.64-2.271-3.53-2.242-4.507l-.015-17.647c-.34-2.521-.899-3.645-3.402-4.135l-15.882.003c-2.12 0-3.183.819-4.315 2.145-.653.766-.85 1.263.492 1.517 2.636.5 4.121 2.206 4.515 4.849.632 4.223.588 8.463.224 12.703-.107 1.238-.32 2.473-.811 3.629-.768 1.817-2.008 2.187-3.637 1.069-1.475-1.012-2.511-2.44-3.525-3.874-3.809-5.382-6.848-11.186-9.326-17.285-.716-1.762-1.951-2.83-3.818-2.859a389.727 389.727 0 0 0-13.762.004c-2.76.052-3.583 1.392-2.459 3.894 4.996 11.113 10.557 21.917 17.816 31.759 3.727 5.051 8.006 9.51 13.534 12.67 6.265 3.582 13.009 4.66 20.112 4.328 3.326-.156 4.325-1.021 4.479-4.336.104-2.268.361-4.523 1.48-6.561 1.098-2 2.761-2.381 4.678-1.137.959.623 1.767 1.416 2.53 2.252 1.872 2.048 3.677 4.158 5.62 6.137 2.437 2.48 5.324 3.945 8.954 3.646l14.052.003c2.264-.148 3.438-2.924 2.138-5.451-.913-1.77-2.111-3.346-3.383-4.871z"/></symbol></svg>