<svg height="15" width="12" xmlns="http://www.w3.org/2000/svg"><path d="m5.786.003c-2.988.105-5.471 2.429-5.757 5.395-.059.594-.025 1.169.08 1.719s.009.064.04.187c.092.412.231.812.404 1.187.601 1.42 1.992 3.797 5.113 6.383.191.159.472.159.666 0 3.121-2.583 4.512-4.96 5.116-6.386.176-.375.311-.772.404-1.187.028-.12.04-.187.04-.187.071-.369.108-.747.108-1.135 0-3.375-2.803-6.096-6.214-5.976zm.213 8.952c-1.61 0-2.914-1.3-2.914-2.905s1.304-2.905 2.914-2.905 2.914 1.3 2.914 2.905-1.304 2.905-2.914 2.905z" fill="#00ffd7" fill-rule="evenodd"/></svg>