<svg height="12" width="16" xmlns="http://www.w3.org/2000/svg" xmlns:xlink="http://www.w3.org/1999/xlink"><filter id="a"><feFlood flood-color="#8d8d8d" result="floodOut"/><feComposite in="floodOut" in2="SourceGraphic" operator="atop" result="compOut"/><feBlend in="compOut" in2="SourceGraphic" mode="normal"/></filter><g filter="url(#a)"><path d="m13.999 11.42c1.097 0 1.994-.803 1.994-1.792v-7.383c0-.986-.893-1.792-1.994-1.792h-12.006c-1.097 0-1.993.802-1.993 1.792v7.383c0 .986.892 1.792 1.993 1.792zm-11.962-8.473c-.208-.159-.233-.436-.056-.623.176-.187.484-.209.692-.051l5.323 4.068 5.327-4.063c.208-.159.516-.134.692.05.177.187.148.464-.056.622l-3.802 2.902 3.818 3.232c.197.165.209.446.02.623-.096.093-.228.14-.356.14-.12 0-.24-.04-.336-.119l-3.902-3.301-1.089.832c-.092.068-.204.105-.316.105s-.224-.037-.316-.105l-1.089-.832-3.902 3.301c-.096.079-.216.119-.336.119-.132 0-.26-.047-.356-.14-.184-.177-.177-.458.02-.623l3.818-3.232z" fill="#8d8d8d" fill-rule="evenodd"/></g></svg>
