<svg height="28" width="22" xmlns="http://www.w3.org/2000/svg"><path d="m10.608.812c-5.156.183-9.439 4.254-9.933 9.45-.102 1.039-.043 2.047.138 3.01s.016.113.069.329c.16.721.399 1.422.697 2.078 1.037 2.488 3.437 6.651 8.821 11.18.33.28.814.28 1.149 0 5.384-4.524 7.784-8.686 8.827-11.185.303-.657.537-1.352.697-2.079.048-.21.069-.328.069-.328.122-.646.186-1.309.186-1.987 0-5.913-4.836-10.678-10.72-10.468zm.367 15.68c-2.777 0-5.028-2.277-5.028-5.088s2.251-5.089 5.028-5.089 5.027 2.278 5.027 5.089-2.25 5.088-5.027 5.088z" fill="#00ffd7" fill-rule="evenodd"/></svg>